<?xml version="1.0" encoding="utf-8"?>
<!-- Generator: Adobe Illustrator 26.0.0, SVG Export Plug-In . SVG Version: 6.00 Build 0)  -->
<svg version="1.1" id="Capa_1" xmlns="http://www.w3.org/2000/svg" xmlns:xlink="http://www.w3.org/1999/xlink" x="0px" y="0px"
	 viewBox="0 0 2500 573" style="enable-background:new 0 0 2500 573;" xml:space="preserve">
<style type="text/css">
	.st0{fill:#FFFFFF;}
</style>
<g>
	<path class="st0" d="M1588.9,153.8c-69.6,0-125.9,56.3-125.9,125.9s56.3,125.9,125.9,125.9c69.6,0,125.9-56.3,125.9-125.9
		C1714.8,210.5,1658.4,153.8,1588.9,153.8 M1588.9,358.6c-43.5,0-79-35.4-79-79c0-43.5,35.4-79,79-79c43.5,0,78.9,35.4,78.9,79
		C1667.8,323.6,1632,358.6,1588.9,358.6"/>
	<path class="st0" d="M1434.8,365h10.2v47.4h-10.2c-54.2,0-98.6-44.4-98.6-98.6V97.4h47.4v63.2h61V208h-61v106.3
		C1383.6,342,1406.6,365,1434.8,365"/>
	<path class="st0" d="M2011.8,153.8c-69.6,0-125.9,56.3-125.9,125.9s56.3,125.9,125.9,125.9c69.6,0,125.9-56.3,125.9-125.9
		C2137.7,210.5,2081.3,153.8,2011.8,153.8 M2011.8,358.6c-43.5,0-78.9-35.4-78.9-79c0-43.5,35.4-79,78.9-79c43.5,0,79,35.4,79,79
		C2090.3,323.6,2054.9,358.6,2011.8,358.6"/>
	<path class="st0" d="M2374.1,153.8c-69.6,0-125.9,56.3-125.9,125.9s56.3,125.9,125.9,125.9c30.7,0,58.9-11.1,80.7-29.5v24.8h45.2
		V283.5v-3.8C2500,210.5,2443.7,153.8,2374.1,153.8 M2374.1,358.6c-43.5,0-79-35.4-79-79c0-43.5,35.4-79,78.9-79s79,35.4,79,79
		C2453.1,323.6,2417.2,358.6,2374.1,358.6"/>
	<path class="st0" d="M1844.9,153.8h22.6v47.4h-22.6c-28.2,0-51.2,23.1-51.2,51.2v150.2h-47.4V252.4
		C1746.3,198.2,1790.7,153.8,1844.9,153.8"/>
	<rect x="2169.3" y="91" class="st0" width="47.4" height="310.7"/>
	<path class="st0" d="M1021.3,258.8v149.8h-47.4V258.8c0-28.2-23-51.2-51.2-51.2c-28.2,0-51.2,23-51.2,51.2v149.8h-47.4V258.8
		c0-28.2-23.1-51.2-51.2-51.2s-51.2,23-51.2,51.2v149.8h-47.4V258.8c0-54.2,44.4-98.6,98.2-98.6c30.3,0,56.8,13.2,75.1,34.6
		c18.3-21.3,44.8-34.6,75.1-34.6C976.9,160.2,1021.3,204.5,1021.3,258.8"/>
	<path class="st0" d="M1179.2,160.2c-70,0-126.3,56.3-126.3,125.9S1109.2,412,1178.7,412c69.6,0,125.9-56.3,125.9-125.9
		C1305.1,216.9,1248.7,160.2,1179.2,160.2 M1179.2,365c-43.5,0-79-35.4-79-79s35.4-79,79-79c43.5,0,79,35.4,79,79
		C1258.1,329.6,1222.3,365,1179.2,365"/>
	<path class="st0" d="M286.4,0.1C128,0.1,0,128.2,0,286.5s128,286.4,286.4,286.4c158.3,0,286.4-128,286.4-286.4
		C572.7,129,446.4,0.1,286.4,0.1z M460.5,431.2c0,0-13.7-62.7-36.3-100.3c-12-20.5-31.2-37.1-56.3-36.7
		c-17.9,0.4-33.3,10.2-52.5,37.1c-11.5,16.2-29.5,57.2-29.5,57.2s-6.8-16.2-14.9-32c-5.1-9.4-10.2-19.2-14.5-25.2
		c-19.2-26.9-34.6-36.7-52.5-37.1c-25.2-0.4-43.9,16.2-56.3,36.7c-22.6,37.5-36.3,100.3-36.3,100.3H90.9L200.6,70.6l84.9,281.7
		l0.9,0.4l0.4-0.4l84.9-281.7L481,431.2H460.5z"/>
</g>
</svg>
